<?xml version="1.0" encoding="utf-8"?>
<!-- Generator: Adobe Illustrator 17.1.0, SVG Export Plug-In . SVG Version: 6.00 Build 0)  -->
<!DOCTYPE svg PUBLIC "-//W3C//DTD SVG 1.1//EN" "http://www.w3.org/Graphics/SVG/1.1/DTD/svg11.dtd">
<svg version="1.1" id="Layer_1" xmlns="http://www.w3.org/2000/svg" xmlns:xlink="http://www.w3.org/1999/xlink" x="0px" y="0px"
	 viewBox="0 0 511 502" enable-background="new 0 0 511 502" xml:space="preserve">
<g>
	<path fill="#93A688" d="M67.8,341.1c0-59.9,35-81.7,94.4-91.8c-23.3-30.4-37.5-66-37.5-97.9c0-46.7,30.9-84.7,113.1-84.7
		c85.7,0,115.7,41.1,123.8,98.9L289,187.3c0-69.5-4.1-113.1-55.8-113.1c-50.2,0-61.9,19.3-61.9,47.7c0,54.3,42.6,94.9,131.9,176.1
		l34,30.9c9.6-25.9,14.2-57.3,15.7-80.2h8.6c-2,24.9-7.1,58.9-17.8,86.3l99.4,92.8h-105l-27.9-25.9c-20.8,22.8-52.8,33.5-98.9,33.5
		C141.8,435.4,67.8,427.8,67.8,341.1z M210.8,427.8c37,0,68-2,94.4-30.9c-55.8-52.3-103-97.4-136-138.5
		c-20.8,9.1-25.4,32.5-25.4,80.2C143.9,405,180.9,427.8,210.8,427.8z"/>
</g>
</svg>
